<svg width="220" height="200" viewBox="0 0 96.586 96.586" xmlns="http://www.w3.org/2000/svg">
  <g transform="matrix(1.0461 0 0 1.0461 -2.3055 -4.0132)" fill="#fcba03">
    <path d="m97.526 49.638c-10.243-8.856-20.976-10.341-33.854-8.693 5.19-7.279 8.958-16.035 5.383-25.22-1.337-3.426-2.888-6.921-5.644-9.493 0 0-2.521-2.356-2.524-2.359-0.566-0.527-7.342 4.785-8.031 5.368-2.619 2.231-4.889 4.855-6.778 7.728-2.892 4.393-4.021 8.561-4.949 13.596-3.411-4.181-5.991-8.365-11.068-10.776-9.783-4.645-18.632-3.302-27.613 2.042-1.672 0.997 5.754 14.164 6.839 15.493 3.463 4.241 8.714 7.605 13.739 9.713 0 0 4.148 1.622 4.203 1.644-2.041-0.8-8.167 2.475-9.913 3.437-4.455 2.46-9.193 7.98-11.014 12.697-0.637 1.651-2.523 16.359-0.334 16.656 3.04 0.411 5.759 0.876 8.87 0.508 7.949-0.945 14.296-3.292 19.911-9.048 0 0 2.91-2.98 2.918-2.987-0.645 0.66 1.532 8.595 1.793 9.595 1.198 4.562 6.208 10.317 10.074 12.852 4.521 2.964 9.981 3.417 15.231 3.772 2.074 0.141 2.914-15.238 2.808-16.774-0.395-5.52-2.426-9.832-5.126-14.527 0.681 1.188 6.754 1.876 8.112 2.073 2.641 0.383 5.298 0.368 7.899-0.276 4.688-1.166 11.096-5.942 14.665-9.204 0.713-0.651 5.898-6.52 4.403-7.817zm-16.564 8.574c-2.893 2.55-7.06 4.525-10.855 5.232-2.088 0.389-7.466-0.034-10.689-1.549 2.781 5.01 2.194 10.754 1.218 16.371-0.116 0.66-1.415 6.34-2.494 6.248-6.061-0.517-11.73-3.873-15.32-8.772-1.181-1.611-3.835-9.045-3.606-11.625-6.339 7.568-22.95 8.551-23.663 7.14-1.587-3.136 3.306-12.608 3.914-13.506 1.511-2.235 3.416-4.174 5.62-5.729 0.959-0.678 5.661-4.019 6.797-3.542-6.688-2.799-12.815-6.013-15.781-13.121-0.361-0.863-2.657-8.04-1.589-8.663 6.191-3.542 11.779-3.431 18.118-0.287 3.967 1.965 6.834 5.58 9.461 8.918 0.943-4.674 3.304-9.332 6.703-12.832 1.353-1.391 10.213-6.908 12.091-5.1 2.631 2.537 4.092 8.861 3.903 12.366-0.235 4.425-2.224 10.135-4.821 13.648 10.166-1.127 17.819-0.051 25.767 7.058 1.226 1.101-4.089 7.14-4.774 7.745z"/>
  </g>
</svg>